<?xml version="1.0" encoding="utf-8"?>
<!-- Generator: Adobe Illustrator 19.2.1, SVG Export Plug-In . SVG Version: 6.00 Build 0)  -->
<svg version="1.1" id="Livello_1" xmlns="http://www.w3.org/2000/svg" xmlns:xlink="http://www.w3.org/1999/xlink" x="0px" y="0px"
	 width="137.4px" height="56px" viewBox="0 0 137.4 56" style="enable-background:new 0 0 137.4 56;" xml:space="preserve">
<style type="text/css">
	.st0{fill:#FFFFFF;}
	.st1{fill:#075CA2;}
	.st2{fill:#E2071C;}
</style>
<rect class="st0" width="137.4" height="56"/>
<g>
	<rect x="3.2" y="3.1" class="st1" width="131" height="49.8"/>
	<g>
		<path class="st2" d="M124.8,41.9h-5.2l2.6-7.9L124.8,41.9z M119.5,31.5l-6.2,17.4h4.1l1.2-3.9h7.3l1.2,3.9h4.1l-6.8-18.7h-3
			C120.4,30.2,119.8,30.7,119.5,31.5"/>
		<path class="st0" d="M47.1,24.2c1.2,1.1,3.1,1.6,5.5,1.6c2.4,0,4.2-0.5,5.5-1.5c1.3-1.1,2-2.6,2-4.6c0-0.9-0.2-1.7-0.6-2.5
			c-0.4-0.7-1-1.2-1.7-1.7c-0.5-0.2-1-0.4-1.5-0.7c-0.3-0.1-0.7-0.2-1.2-0.3c-0.5-0.1-1.1-0.3-1.7-0.5c-0.3,0-0.7-0.1-1.4-0.3
			c-2.1-0.5-3.2-1.2-3.2-2.2c0-0.7,0.3-1.3,0.8-1.7c0.5-0.4,1.3-0.6,2.3-0.6c1.1,0,2,0.2,2.7,0.7c0.3,0.3,0.6,0.6,0.8,0.9
			c0.4,0.8,1,1.1,1.8,1.1h2.2c-0.1-1.8-0.7-3.3-2-4.4c-1.2-1-2.9-1.5-5.1-1.5c-2.4,0-4.2,0.5-5.4,1.5c-1.2,1-1.8,2.4-1.8,4.2
			c0,1,0.2,1.8,0.5,2.5c0.3,0.8,0.8,1.3,1.5,1.7c0.6,0.4,1.8,0.9,3.7,1.3l0.4,0.1l0.1,0.1c3.3,0.7,4.9,1.7,4.9,2.8
			c0,0.8-0.3,1.3-0.9,1.7c-0.6,0.4-1.4,0.6-2.6,0.6c-1.3,0-2.3-0.3-3-0.8c-0.7-0.4-1.1-1.2-1.3-2.3h-3.8
			C45,21.6,45.8,23.2,47.1,24.2"/>
		<path class="st0" d="M18.3,18.4H13l2.6-7.9L18.3,18.4z M12.9,7.9L6.7,25.4h4.1l1.2-3.9h7.3l1.2,3.9h4.1L17.8,6.7h-3
			C13.9,6.7,13.3,7.1,12.9,7.9"/>
		<path class="st0" d="M30.9,25.5V12.6l7.7,12.9h4V6.7h-3.8v12.9L31.1,6.7H29c-0.5,0-1,0.2-1.4,0.6c-0.4,0.4-0.6,0.8-0.6,1.4v16.7
			H30.9z"/>
		<path class="st0" d="M72.3,18.5h-5.2l2.6-7.9L72.3,18.5z M67,8l-6.2,17.4h4.1l1.2-3.9h7.3l1.3,3.9h4.1L71.9,6.8h-3
			C67.9,6.8,67.3,7.2,67,8"/>
		<path class="st0" d="M93.1,25.6v-3.5H84V6.9h-1.9c-0.5,0-1,0.2-1.4,0.6c-0.4,0.4-0.6,0.8-0.6,1.4v16.7H93.1z"/>
		<path class="st0" d="M99.1,10.2h3.6c1.6,0,2.8,0.5,3.5,1.5c0.8,1,1.1,2.5,1.1,4.6c0,2.2-0.4,3.7-1.2,4.6c-0.8,0.9-2.1,1.4-3.9,1.4
			h-3.1V10.2z M101.6,25.7c1.8,0,3.1-0.1,4-0.4c0.9-0.3,1.8-0.7,2.6-1.3c0.9-0.7,1.7-1.8,2.3-3.2c0.5-1.3,0.8-2.8,0.8-4.5
			c0-3.1-0.7-5.5-2.1-7.1c-1.4-1.5-3.6-2.3-6.4-2.3h-5.4c-0.5,0-1,0.2-1.4,0.6c-0.4,0.4-0.6,0.8-0.6,1.4v16.7H101.6z"/>
		<path class="st0" d="M115.4,23.7c1.6,1.7,3.9,2.6,6.7,2.6c2.8,0,5-0.9,6.7-2.6c1.6-1.8,2.4-4.2,2.4-7.2c0-3-0.8-5.4-2.4-7.2
			c-1.7-1.8-4-2.7-6.7-2.7c-2.8,0-5,0.9-6.7,2.7c-1.6,1.8-2.4,4.2-2.4,7.2S113.8,21.9,115.4,23.7 M118.2,11.7
			c0.9-1.1,2.2-1.7,3.9-1.7c1.6,0,2.9,0.6,3.9,1.7c0.9,1.2,1.4,2.8,1.4,4.8c0,2-0.5,3.6-1.4,4.8c-0.9,1.1-2.2,1.7-3.9,1.7
			c-1.7,0-3-0.6-3.9-1.7c-0.9-1.1-1.4-2.7-1.4-4.8S117.3,12.8,118.2,11.7"/>
		<path class="st2" d="M69.1,33.4h4.7c0.9,0,1.5,0.2,2,0.7c0.5,0.4,0.7,1,0.7,1.8c0,0.8-0.2,1.4-0.7,1.8c-0.5,0.4-1.2,0.6-2.2,0.6
			h-4.5V33.4z M69.1,48.9v-7.3h4.1c1,0,1.7,0.2,2.1,0.6c0.4,0.5,0.6,1.3,0.7,2.3l0.1,2c0,0.2,0,0.6,0.1,1.2c0,0.4,0.1,0.8,0.3,1.1
			h4.2c-0.3-0.2-0.5-0.6-0.7-1.2c0-0.2-0.1-0.5-0.1-0.7v-0.7L79.9,44c-0.1-1.3-0.3-2.2-0.6-2.8c-0.3-0.6-0.9-1-1.7-1.3
			c0.9-0.3,1.6-0.9,2.1-1.6c0.5-0.8,0.8-1.7,0.8-2.9c0-1.7-0.5-3.1-1.5-4c-1-0.9-2.5-1.3-4.5-1.3h-7.1c-0.5,0-1,0.2-1.4,0.6
			c-0.4,0.4-0.6,0.8-0.6,1.4v16.7H69.1z"/>
		<path class="st2" d="M60.2,48.9v-3.5h-9.8v-4.8h5.3c0.5,0,1-0.2,1.4-0.6c0.4-0.4,0.6-0.8,0.6-1.4v-1.2h-7.3v-4h9.8v-3.2H48.5
			c-0.5,0-1,0.2-1.4,0.6c-0.4,0.4-0.6,0.8-0.6,1.4v16.7H60.2z"/>
		<path class="st2" d="M109.8,48.9V30.2h-1.9c-0.5,0-1,0.2-1.4,0.6c-0.4,0.4-0.6,0.8-0.6,1.4v16.7H109.8z"/>
		<path class="st2" d="M98.3,47.4c0.3,1,0.9,1.5,1.9,1.5h1V38.8h-7.8V40c0,0.5,0.2,1,0.6,1.4c0.4,0.4,0.8,0.6,1.4,0.6h2.3
			c-0.2,1.3-0.7,2.3-1.5,3c-0.8,0.7-1.8,1-3,1c-1.7,0-3-0.6-3.9-1.7c-0.9-1.2-1.4-2.8-1.4-4.8c0-2,0.5-3.6,1.4-4.8
			c0.9-1.1,2.1-1.7,3.7-1.7c1.2,0,2.2,0.3,2.9,0.8c0.5,0.4,0.8,0.8,1.1,1.2c0.4,0.7,0.9,1,1.7,1h2.6c-0.3-1.9-1.2-3.5-2.7-4.7
			c-1.5-1.1-3.4-1.7-5.8-1.7c-2.7,0-4.8,0.9-6.5,2.7c-1.6,1.7-2.3,4.1-2.3,7.1c0,3,0.8,5.4,2.4,7.2c1.6,1.8,3.7,2.7,6.4,2.7
			c1.1,0,2.2-0.2,3.1-0.6c0.9-0.4,1.7-1.1,2.3-2.1L98.3,47.4z"/>
		<path class="st2" d="M29.2,48.9V36.1l7.7,12.9h4V30.2H37v12.9l-7.6-12.9h-2.1c-0.5,0-1,0.2-1.4,0.6c-0.4,0.4-0.6,0.8-0.6,1.4v16.7
			H29.2z"/>
		<path class="st2" d="M20.3,48.9v-3.5h-9.8v-4.8h5.3c0.5,0,1-0.2,1.4-0.6c0.4-0.4,0.6-0.8,0.6-1.4v-1.2h-7.3v-4h9.8v-3.2H8.7
			c-0.5,0-1,0.2-1.4,0.6c-0.4,0.4-0.6,0.8-0.6,1.4v16.7H20.3"/>
	</g>
</g>
</svg>
